G04 (created by PCBNEW (2013-07-07 BZR 4022)-stable) date 2/06/2014 22:41:19*
%MOIN*%
G04 Gerber Fmt 3.4, Leading zero omitted, Abs format*
%FSLAX34Y34*%
G01*
G70*
G90*
G04 APERTURE LIST*
%ADD10C,0.00393701*%
%ADD11C,0.00984252*%
%ADD12C,0.070748*%
%ADD13C,0.115748*%
%ADD14R,0.0748031X0.0748031*%
%ADD15C,0.0748031*%
%ADD16C,0.175748*%
G04 APERTURE END LIST*
G54D10*
G54D11*
X32682Y-24978D02*
X32682Y-24545D01*
X32517Y-24545D01*
X32476Y-24565D01*
X32455Y-24586D01*
X32435Y-24627D01*
X32435Y-24689D01*
X32455Y-24730D01*
X32476Y-24751D01*
X32517Y-24772D01*
X32682Y-24772D01*
X32270Y-24957D02*
X32208Y-24978D01*
X32105Y-24978D01*
X32064Y-24957D01*
X32043Y-24937D01*
X32022Y-24895D01*
X32022Y-24854D01*
X32043Y-24813D01*
X32064Y-24792D01*
X32105Y-24772D01*
X32187Y-24751D01*
X32229Y-24730D01*
X32249Y-24710D01*
X32270Y-24669D01*
X32270Y-24627D01*
X32249Y-24586D01*
X32229Y-24565D01*
X32187Y-24545D01*
X32084Y-24545D01*
X32022Y-24565D01*
X31878Y-24545D02*
X31610Y-24545D01*
X31754Y-24710D01*
X31692Y-24710D01*
X31651Y-24730D01*
X31631Y-24751D01*
X31610Y-24792D01*
X31610Y-24895D01*
X31631Y-24937D01*
X31651Y-24957D01*
X31692Y-24978D01*
X31816Y-24978D01*
X31857Y-24957D01*
X31878Y-24937D01*
X31115Y-24854D02*
X30909Y-24854D01*
X31156Y-24978D02*
X31012Y-24545D01*
X30868Y-24978D01*
X30723Y-24978D02*
X30723Y-24689D01*
X30723Y-24772D02*
X30703Y-24730D01*
X30682Y-24710D01*
X30641Y-24689D01*
X30599Y-24689D01*
X30269Y-24957D02*
X30311Y-24978D01*
X30393Y-24978D01*
X30434Y-24957D01*
X30455Y-24937D01*
X30476Y-24895D01*
X30476Y-24772D01*
X30455Y-24730D01*
X30434Y-24710D01*
X30393Y-24689D01*
X30311Y-24689D01*
X30269Y-24710D01*
X29898Y-24978D02*
X29898Y-24751D01*
X29919Y-24710D01*
X29960Y-24689D01*
X30043Y-24689D01*
X30084Y-24710D01*
X29898Y-24957D02*
X29940Y-24978D01*
X30043Y-24978D01*
X30084Y-24957D01*
X30104Y-24916D01*
X30104Y-24875D01*
X30084Y-24834D01*
X30043Y-24813D01*
X29940Y-24813D01*
X29898Y-24792D01*
X29506Y-24978D02*
X29506Y-24545D01*
X29506Y-24957D02*
X29548Y-24978D01*
X29630Y-24978D01*
X29671Y-24957D01*
X29692Y-24937D01*
X29713Y-24895D01*
X29713Y-24772D01*
X29692Y-24730D01*
X29671Y-24710D01*
X29630Y-24689D01*
X29548Y-24689D01*
X29506Y-24710D01*
X29135Y-24957D02*
X29176Y-24978D01*
X29259Y-24978D01*
X29300Y-24957D01*
X29321Y-24916D01*
X29321Y-24751D01*
X29300Y-24710D01*
X29259Y-24689D01*
X29176Y-24689D01*
X29135Y-24710D01*
X29115Y-24751D01*
X29115Y-24792D01*
X29321Y-24834D01*
X28620Y-24854D02*
X28413Y-24854D01*
X28661Y-24978D02*
X28517Y-24545D01*
X28372Y-24978D01*
X28042Y-24978D02*
X28042Y-24545D01*
X28042Y-24957D02*
X28083Y-24978D01*
X28166Y-24978D01*
X28207Y-24957D01*
X28228Y-24937D01*
X28248Y-24895D01*
X28248Y-24772D01*
X28228Y-24730D01*
X28207Y-24710D01*
X28166Y-24689D01*
X28083Y-24689D01*
X28042Y-24710D01*
X27650Y-24978D02*
X27650Y-24751D01*
X27671Y-24710D01*
X27712Y-24689D01*
X27795Y-24689D01*
X27836Y-24710D01*
X27650Y-24957D02*
X27692Y-24978D01*
X27795Y-24978D01*
X27836Y-24957D01*
X27857Y-24916D01*
X27857Y-24875D01*
X27836Y-24834D01*
X27795Y-24813D01*
X27692Y-24813D01*
X27650Y-24792D01*
X27444Y-24689D02*
X27444Y-25122D01*
X27444Y-24710D02*
X27403Y-24689D01*
X27320Y-24689D01*
X27279Y-24710D01*
X27259Y-24730D01*
X27238Y-24772D01*
X27238Y-24895D01*
X27259Y-24937D01*
X27279Y-24957D01*
X27320Y-24978D01*
X27403Y-24978D01*
X27444Y-24957D01*
X27114Y-24689D02*
X26949Y-24689D01*
X27052Y-24545D02*
X27052Y-24916D01*
X27032Y-24957D01*
X26991Y-24978D01*
X26949Y-24978D01*
X26640Y-24957D02*
X26681Y-24978D01*
X26764Y-24978D01*
X26805Y-24957D01*
X26826Y-24916D01*
X26826Y-24751D01*
X26805Y-24710D01*
X26764Y-24689D01*
X26681Y-24689D01*
X26640Y-24710D01*
X26619Y-24751D01*
X26619Y-24792D01*
X26826Y-24834D01*
X26434Y-24978D02*
X26434Y-24689D01*
X26434Y-24772D02*
X26413Y-24730D01*
X26392Y-24710D01*
X26351Y-24689D01*
X26310Y-24689D01*
X33435Y-25250D02*
X33291Y-25683D01*
X33146Y-25250D01*
X32775Y-25683D02*
X33023Y-25683D01*
X32899Y-25683D02*
X32899Y-25250D01*
X32940Y-25311D01*
X32981Y-25353D01*
X33023Y-25373D01*
X32589Y-25641D02*
X32569Y-25662D01*
X32589Y-25683D01*
X32610Y-25662D01*
X32589Y-25641D01*
X32589Y-25683D01*
X32301Y-25250D02*
X32260Y-25250D01*
X32218Y-25270D01*
X32198Y-25291D01*
X32177Y-25332D01*
X32156Y-25415D01*
X32156Y-25518D01*
X32177Y-25600D01*
X32198Y-25641D01*
X32218Y-25662D01*
X32260Y-25683D01*
X32301Y-25683D01*
X32342Y-25662D01*
X32363Y-25641D01*
X32383Y-25600D01*
X32404Y-25518D01*
X32404Y-25415D01*
X32383Y-25332D01*
X32363Y-25291D01*
X32342Y-25270D01*
X32301Y-25250D01*
X31641Y-25518D02*
X31311Y-25518D01*
X30527Y-25683D02*
X30672Y-25476D01*
X30775Y-25683D02*
X30775Y-25250D01*
X30610Y-25250D01*
X30568Y-25270D01*
X30548Y-25291D01*
X30527Y-25332D01*
X30527Y-25394D01*
X30548Y-25435D01*
X30568Y-25456D01*
X30610Y-25476D01*
X30775Y-25476D01*
X30280Y-25683D02*
X30321Y-25662D01*
X30342Y-25641D01*
X30362Y-25600D01*
X30362Y-25476D01*
X30342Y-25435D01*
X30321Y-25415D01*
X30280Y-25394D01*
X30218Y-25394D01*
X30177Y-25415D01*
X30156Y-25435D01*
X30135Y-25476D01*
X30135Y-25600D01*
X30156Y-25641D01*
X30177Y-25662D01*
X30218Y-25683D01*
X30280Y-25683D01*
X29950Y-25683D02*
X29950Y-25250D01*
X29950Y-25415D02*
X29909Y-25394D01*
X29826Y-25394D01*
X29785Y-25415D01*
X29764Y-25435D01*
X29744Y-25476D01*
X29744Y-25600D01*
X29764Y-25641D01*
X29785Y-25662D01*
X29826Y-25683D01*
X29909Y-25683D01*
X29950Y-25662D01*
X29558Y-25683D02*
X29558Y-25250D01*
X29558Y-25415D02*
X29517Y-25394D01*
X29434Y-25394D01*
X29393Y-25415D01*
X29372Y-25435D01*
X29352Y-25476D01*
X29352Y-25600D01*
X29372Y-25641D01*
X29393Y-25662D01*
X29434Y-25683D01*
X29517Y-25683D01*
X29558Y-25662D01*
X29104Y-25683D02*
X29146Y-25662D01*
X29166Y-25641D01*
X29187Y-25600D01*
X29187Y-25476D01*
X29166Y-25435D01*
X29146Y-25415D01*
X29104Y-25394D01*
X29042Y-25394D01*
X29001Y-25415D01*
X28981Y-25435D01*
X28960Y-25476D01*
X28960Y-25600D01*
X28981Y-25641D01*
X29001Y-25662D01*
X29042Y-25683D01*
X29104Y-25683D01*
X28444Y-25518D02*
X28114Y-25518D01*
X27496Y-25250D02*
X27455Y-25250D01*
X27413Y-25270D01*
X27393Y-25291D01*
X27372Y-25332D01*
X27351Y-25415D01*
X27351Y-25518D01*
X27372Y-25600D01*
X27393Y-25641D01*
X27413Y-25662D01*
X27455Y-25683D01*
X27496Y-25683D01*
X27537Y-25662D01*
X27558Y-25641D01*
X27578Y-25600D01*
X27599Y-25518D01*
X27599Y-25415D01*
X27578Y-25332D01*
X27558Y-25291D01*
X27537Y-25270D01*
X27496Y-25250D01*
X26980Y-25250D02*
X27063Y-25250D01*
X27104Y-25270D01*
X27125Y-25291D01*
X27166Y-25353D01*
X27186Y-25435D01*
X27186Y-25600D01*
X27166Y-25641D01*
X27145Y-25662D01*
X27104Y-25683D01*
X27021Y-25683D01*
X26980Y-25662D01*
X26960Y-25641D01*
X26939Y-25600D01*
X26939Y-25497D01*
X26960Y-25456D01*
X26980Y-25435D01*
X27021Y-25415D01*
X27104Y-25415D01*
X27145Y-25435D01*
X27166Y-25456D01*
X27186Y-25497D01*
X26444Y-25229D02*
X26815Y-25786D01*
X26073Y-25683D02*
X26320Y-25683D01*
X26197Y-25683D02*
X26197Y-25250D01*
X26238Y-25311D01*
X26279Y-25353D01*
X26320Y-25373D01*
X25702Y-25394D02*
X25702Y-25683D01*
X25805Y-25229D02*
X25908Y-25538D01*
X25640Y-25538D01*
%LPC*%
G54D12*
X27559Y-31027D03*
X27559Y-28027D03*
X31496Y-31027D03*
X31496Y-28027D03*
G54D13*
X22440Y-33464D03*
X22440Y-31496D03*
X22440Y-29527D03*
X22440Y-35433D03*
X22440Y-27559D03*
X22440Y-25590D03*
X22440Y-23622D03*
X36614Y-25590D03*
X36614Y-27559D03*
X36614Y-29527D03*
X36614Y-23622D03*
X36614Y-31496D03*
X36614Y-33464D03*
X36614Y-35433D03*
X30511Y-36614D03*
X28543Y-36614D03*
X26574Y-36614D03*
X32480Y-36614D03*
G54D14*
X33267Y-20866D03*
G54D15*
X32874Y-21653D03*
X32480Y-20866D03*
X32086Y-21653D03*
X31692Y-20866D03*
X31299Y-21653D03*
X30905Y-20866D03*
X30511Y-21653D03*
X30118Y-20866D03*
X29724Y-21653D03*
X29330Y-20866D03*
X28937Y-21653D03*
X28543Y-20866D03*
X28149Y-21653D03*
X27755Y-20866D03*
X27362Y-21653D03*
X26968Y-20866D03*
X26574Y-21653D03*
X26181Y-20866D03*
X25787Y-21653D03*
G54D16*
X37795Y-21259D03*
X21259Y-21259D03*
X37795Y-37795D03*
X21259Y-37795D03*
M02*
