<?xml version="1.0" standalone="no"?>
 <!DOCTYPE svg PUBLIC "-//W3C//DTD SVG 1.1//EN" 
 "http://www.w3.org/Graphics/SVG/1.1/DTD/svg11.dtd"> 
<svg xmlns="http://www.w3.org/2000/svg" version="1.1" 
    width="29.7002cm" height="21.0007cm" viewBox="0 0 116929 82679 ">
<title>SVG Picture created as arcadeadapter.svg date 2014/07/12 10:18:52 </title>
  <desc>Picture generated by Eeschema-SVG </desc>
<g style="fill:#000000; fill-opacity:1;stroke:#000000; stroke-opacity:1;
stroke-linecap:round; stroke-linejoin:round; "
 transform="translate(0 0) scale(1 1)">
</g>
<g style="fill:#9F0000; fill-opacity:0.0; 
stroke:#9F0000; stroke-width:100; stroke-opacity:1; 
stroke-linecap:round; stroke-linejoin:round;">
<path d="M4000 4000
L112930 4000
L112930 78680
L4000 78680
L4000 4000
" />
<path d="M4700 4700
L112230 4700
L112230 77980
L4700 77980
L4700 4700
" />
<path d="M25780 4000
L25780 4700
" />
<path d="M15030 4550
L14750 4550
" />
<path d="M14890 4550
L14890 4050
L14840 4120
L14790 4170
L14750 4200
" />
<path d="M25780 78680
L25780 77980
" />
<path d="M15030 78530
L14750 78530
" />
<path d="M14890 78530
L14890 78030
L14840 78100
L14790 78150
L14750 78180
" />
<path d="M47560 4000
L47560 4700
" />
<path d="M36530 4100
L36550 4080
L36600 4050
L36720 4050
L36760 4080
L36790 4100
L36810 4150
L36810 4200
L36790 4270
L36500 4550
L36810 4550
" />
<path d="M47560 78680
L47560 77980
" />
<path d="M36530 78080
L36550 78060
L36600 78030
L36720 78030
L36760 78060
L36790 78080
L36810 78130
L36810 78180
L36790 78250
L36500 78530
L36810 78530
" />
<path d="M69340 4000
L69340 4700
" />
<path d="M58280 4050
L58590 4050
L58420 4240
L58500 4240
L58540 4270
L58570 4290
L58590 4340
L58590 4460
L58570 4500
L58540 4530
L58500 4550
L58350 4550
L58310 4530
L58280 4500
" />
<path d="M69340 78680
L69340 77980
" />
<path d="M58280 78030
L58590 78030
L58420 78220
L58500 78220
L58540 78250
L58570 78270
L58590 78320
L58590 78440
L58570 78480
L58540 78510
L58500 78530
L58350 78530
L58310 78510
L58280 78480
" />
<path d="M91120 4000
L91120 4700
" />
<path d="M80320 4220
L80320 4550
" />
<path d="M80200 4030
L80090 4390
L80390 4390
" />
<path d="M91120 78680
L91120 77980
" />
<path d="M80320 78200
L80320 78530
" />
<path d="M80200 78010
L80090 78370
L80390 78370
" />
<path d="M102130 4050
L101890 4050
L101870 4290
L101890 4270
L101940 4240
L102060 4240
L102100 4270
L102130 4290
L102150 4340
L102150 4460
L102130 4500
L102100 4530
L102060 4550
L101940 4550
L101890 4530
L101870 4500
" />
<path d="M102130 78030
L101890 78030
L101870 78270
L101890 78250
L101940 78220
L102060 78220
L102100 78250
L102130 78270
L102150 78320
L102150 78440
L102130 78480
L102100 78510
L102060 78530
L101940 78530
L101890 78510
L101870 78480
" />
<path d="M4000 28890
L4700 28890
" />
<path d="M4240 16510
L4470 16510
" />
<path d="M4190 16650
L4350 16150
L4520 16650
" />
<path d="M112930 28890
L112230 28890
" />
<path d="M112470 16510
L112700 16510
" />
<path d="M112420 16650
L112580 16150
L112750 16650
" />
<path d="M4000 53780
L4700 53780
" />
<path d="M4390 41280
L4460 41300
L4480 41330
L4500 41380
L4500 41450
L4480 41490
L4460 41520
L4410 41540
L4220 41540
L4220 41040
L4390 41040
L4430 41070
L4460 41090
L4480 41140
L4480 41190
L4460 41230
L4430 41260
L4390 41280
L4220 41280
" />
<path d="M112930 53780
L112230 53780
" />
<path d="M112620 41280
L112690 41300
L112710 41330
L112730 41380
L112730 41450
L112710 41490
L112690 41520
L112640 41540
L112450 41540
L112450 41040
L112620 41040
L112660 41070
L112690 41090
L112710 41140
L112710 41190
L112690 41230
L112660 41260
L112620 41280
L112450 41280
" />
<path d="M4500 66380
L4480 66410
L4410 66430
L4360 66430
L4290 66410
L4240 66360
L4220 66310
L4200 66220
L4200 66150
L4220 66050
L4240 66000
L4290 65960
L4360 65930
L4410 65930
L4480 65960
L4500 65980
" />
<path d="M112730 66380
L112710 66410
L112640 66430
L112590 66430
L112520 66410
L112470 66360
L112450 66310
L112430 66220
L112430 66150
L112450 66050
L112470 66000
L112520 65960
L112590 65930
L112640 65930
L112710 65960
L112730 65980
" />
<path d="M79380 76420
L79450 75820
L79600 75820
L79680 75850
L79730 75910
L79750 75970
L79770 76080
L79760 76170
L79720 76280
L79680 76340
L79610 76390
L79530 76420
L79380 76420
" />
<path d="M80240 76420
L80280 76110
L80250 76050
L80200 76020
L80090 76020
L80020 76050
" />
<path d="M80240 76390
L80180 76420
L80040 76420
L79980 76390
L79960 76340
L79970 76280
L80000 76220
L80070 76190
L80210 76190
L80270 76170
" />
<path d="M80490 76020
L80720 76020
" />
<path d="M80590 75820
L80530 76340
L80550 76390
L80610 76420
L80670 76420
" />
<path d="M81090 76390
L81030 76420
L80920 76420
L80860 76390
L80840 76340
L80870 76110
L80900 76050
L80970 76020
L81080 76020
L81130 76050
L81160 76110
L81150 76170
L80850 76220
" />
<path d="M81370 76370
L81400 76390
L81370 76420
L81340 76390
L81370 76370
L81370 76420
" />
<path d="M81410 76050
L81440 76080
L81410 76110
L81380 76080
L81410 76050
L81410 76110
" />
<path d="M82440 76420
L82090 76420
" />
<path d="M82270 76420
L82340 75820
L82270 75910
L82200 75970
L82140 75990
" />
<path d="M82730 75880
L82760 75850
L82820 75820
L82960 75820
L83020 75850
L83050 75880
L83070 75940
L83060 75990
L83020 76080
L82640 76420
L83010 76420
" />
<path d="M83770 76020
L83700 76540
L83670 76590
L83610 76620
L83580 76620
" />
<path d="M83790 75820
L83760 75850
L83790 75880
L83820 75850
L83790 75820
L83790 75880
" />
<path d="M84320 76020
L84270 76420
" />
<path d="M84060 76020
L84020 76340
L84040 76390
L84100 76420
L84180 76420
L84240 76390
L84270 76370
" />
<path d="M84640 76420
L84580 76390
L84560 76340
L84620 75820
" />
<path d="M85360 75880
L85390 75850
L85450 75820
L85590 75820
L85650 75850
L85680 75880
L85700 75940
L85690 75990
L85650 76080
L85270 76420
L85640 76420
" />
<path d="M86080 75820
L86130 75820
L86190 75850
L86220 75880
L86240 75940
L86250 76050
L86240 76190
L86190 76310
L86150 76370
L86120 76390
L86060 76420
L86010 76420
L85950 76390
L85920 76370
L85900 76310
L85890 76190
L85900 76050
L85950 75940
L85990 75880
L86020 75850
L86080 75820
" />
<path d="M86780 76420
L86430 76420
" />
<path d="M86610 76420
L86680 75820
L86610 75910
L86540 75970
L86480 75990
" />
<path d="M87340 76020
L87290 76420
" />
<path d="M87230 75790
L87020 76220
L87400 76220
" />
<path d="M70970 77620
L70970 77020
" />
<path d="M71320 77620
L71060 77280
" />
<path d="M71320 77020
L70970 77370
" />
<path d="M71570 77620
L71570 77220
" />
<path d="M71570 77020
L71540 77050
L71570 77080
L71600 77050
L71570 77020
L71570 77080
" />
<path d="M72210 77570
L72180 77590
L72090 77620
L72030 77620
L71950 77590
L71890 77540
L71860 77480
L71830 77370
L71830 77280
L71860 77170
L71890 77110
L71950 77050
L72030 77020
L72090 77020
L72180 77050
L72210 77080
" />
<path d="M72720 77620
L72720 77310
L72690 77250
L72630 77220
L72520 77220
L72460 77250
" />
<path d="M72720 77590
L72660 77620
L72520 77620
L72460 77590
L72430 77540
L72430 77480
L72460 77420
L72520 77390
L72660 77390
L72720 77370
" />
<path d="M73260 77620
L73260 77020
" />
<path d="M73260 77590
L73200 77620
L73090 77620
L73030 77590
L73000 77570
L72970 77510
L72970 77340
L73000 77280
L73030 77250
L73090 77220
L73200 77220
L73260 77250
" />
<path d="M74000 77310
L74200 77310
" />
<path d="M74290 77620
L74000 77620
L74000 77020
L74290 77020
" />
<path d="M74540 77570
L74570 77590
L74540 77620
L74510 77590
L74540 77570
L74540 77620
" />
<path d="M74830 77620
L74830 77020
L74980 77020
L75060 77050
L75120 77110
L75150 77170
L75180 77280
L75180 77370
L75150 77480
L75120 77540
L75060 77590
L74980 77620
L74830 77620
" />
<path d="M75430 77570
L75460 77590
L75430 77620
L75400 77590
L75430 77570
L75430 77620
" />
<path d="M75690 77450
L75980 77450
" />
<path d="M75640 77620
L75840 77020
L76040 77620
" />
<path d="M76230 77570
L76260 77590
L76230 77620
L76200 77590
L76230 77570
L76230 77620
" />
<path d="M104530 76420
L104360 76140
" />
<path d="M104180 76420
L104250 75820
L104480 75820
L104540 75850
L104570 75880
L104590 75940
L104580 76020
L104540 76080
L104510 76110
L104440 76140
L104210 76140
" />
<path d="M105010 76390
L104950 76420
L104840 76420
L104780 76390
L104760 76340
L104790 76110
L104820 76050
L104890 76020
L105000 76020
L105050 76050
L105080 76110
L105070 76170
L104770 76220
" />
<path d="M105290 76020
L105380 76420
L105570 76020
" />
<path d="M105750 76370
L105780 76390
L105750 76420
L105720 76390
L105750 76370
L105750 76420
" />
<path d="M105790 76050
L105820 76080
L105790 76110
L105760 76080
L105790 76050
L105790 76110
" />
<path d="M70940 76390
L71030 76420
L71170 76420
L71230 76390
L71260 76370
L71290 76310
L71290 76250
L71260 76190
L71230 76170
L71170 76140
L71060 76110
L71000 76080
L70970 76050
L70940 75990
L70940 75940
L70970 75880
L71000 75850
L71060 75820
L71200 75820
L71290 75850
" />
<path d="M71540 76420
L71540 76020
" />
<path d="M71540 75820
L71510 75850
L71540 75880
L71570 75850
L71540 75820
L71540 75880
" />
<path d="M71780 76020
L72090 76020
L71780 76420
L72090 76420
" />
<path d="M72550 76390
L72490 76420
L72380 76420
L72320 76390
L72290 76340
L72290 76110
L72320 76050
L72380 76020
L72490 76020
L72550 76050
L72580 76110
L72580 76170
L72290 76220
" />
<path d="M72830 76370
L72860 76390
L72830 76420
L72800 76390
L72830 76370
L72830 76420
" />
<path d="M72830 76050
L72860 76080
L72830 76110
L72800 76080
L72830 76050
L72830 76110
" />
<path d="M73550 76250
L73840 76250
" />
<path d="M73500 76420
L73700 75820
L73900 76420
" />
<path d="M74350 76020
L74350 76420
" />
<path d="M74210 75790
L74060 76220
L74440 76220
" />
<path d="M104170 77620
L104170 77020
" />
<path d="M104720 77620
L104720 77020
" />
<path d="M104720 77590
L104660 77620
L104550 77620
L104490 77590
L104460 77570
L104430 77510
L104430 77340
L104460 77280
L104490 77250
L104550 77220
L104660 77220
L104720 77250
" />
<path d="M105000 77570
L105030 77590
L105000 77620
L104970 77590
L105000 77570
L105000 77620
" />
<path d="M105000 77250
L105030 77280
L105000 77310
L104970 77280
L105000 77250
L105000 77310
" />
<path d="M106070 77620
L105720 77620
" />
<path d="M105900 77620
L105900 77020
L105840 77110
L105780 77170
L105720 77190
" />
<path d="M106750 76990
L106240 77770
" />
<path d="M107270 77620
L106920 77620
" />
<path d="M107100 77620
L107100 77020
L107040 77110
L106980 77170
L106920 77190
" />
<path d="M70970 74620
L71310 74620
" />
<path d="M71070 75220
L71140 74620
" />
<path d="M71440 75220
L71490 74820
" />
<path d="M71510 74620
L71480 74650
L71510 74680
L71540 74650
L71510 74620
L71510 74680
" />
<path d="M71700 74820
L71930 74820
" />
<path d="M71800 74620
L71740 75140
L71760 75190
L71820 75220
L71880 75220
" />
<path d="M72160 75220
L72100 75190
L72080 75140
L72140 74620
" />
<path d="M72610 75190
L72550 75220
L72440 75220
L72380 75190
L72360 75140
L72390 74910
L72420 74850
L72490 74820
L72600 74820
L72650 74850
L72680 74910
L72670 74970
L72370 75020
" />
<path d="M72890 75170
L72920 75190
L72890 75220
L72860 75190
L72890 75170
L72890 75220
" />
<path d="M72930 74850
L72960 74880
L72930 74910
L72900 74880
L72930 74850
L72930 74910
" />
<path d="M71170 72510
L70970 72510
" />
<path d="M70970 72820
L70970 72220
L71260 72220
" />
<path d="M71480 72820
L71480 72420
" />
<path d="M71480 72220
L71450 72250
L71480 72280
L71510 72250
L71480 72220
L71480 72280
" />
<path d="M71860 72820
L71800 72790
L71770 72740
L71770 72220
" />
<path d="M72310 72790
L72250 72820
L72140 72820
L72080 72790
L72050 72740
L72050 72510
L72080 72450
L72140 72420
L72250 72420
L72310 72450
L72340 72510
L72340 72570
L72050 72620
" />
<path d="M72590 72770
L72620 72790
L72590 72820
L72560 72790
L72590 72770
L72590 72820
" />
<path d="M72590 72450
L72620 72480
L72590 72510
L72560 72480
L72590 72450
L72590 72510
" />
<path d="M73600 72820
L73600 72510
L73570 72450
L73510 72420
L73400 72420
L73340 72450
" />
<path d="M73600 72790
L73540 72820
L73400 72820
L73340 72790
L73310 72740
L73310 72680
L73340 72620
L73400 72590
L73540 72590
L73600 72570
" />
<path d="M73880 72820
L73880 72420
" />
<path d="M73880 72540
L73910 72480
L73940 72450
L74000 72420
L74050 72420
" />
<path d="M74510 72790
L74450 72820
L74340 72820
L74280 72790
L74250 72770
L74220 72710
L74220 72540
L74250 72480
L74280 72450
L74340 72420
L74450 72420
L74510 72450
" />
<path d="M75020 72820
L75020 72510
L74990 72450
L74930 72420
L74820 72420
L74760 72450
" />
<path d="M75020 72790
L74960 72820
L74820 72820
L74760 72790
L74730 72740
L74730 72680
L74760 72620
L74820 72590
L74960 72590
L75020 72570
" />
<path d="M75560 72820
L75560 72220
" />
<path d="M75560 72790
L75500 72820
L75390 72820
L75330 72790
L75300 72770
L75270 72710
L75270 72540
L75300 72480
L75330 72450
L75390 72420
L75500 72420
L75560 72450
" />
<path d="M76070 72790
L76010 72820
L75900 72820
L75840 72790
L75810 72740
L75810 72510
L75840 72450
L75900 72420
L76010 72420
L76070 72450
L76100 72510
L76100 72570
L75810 72620
" />
<path d="M76610 72820
L76610 72510
L76580 72450
L76520 72420
L76410 72420
L76350 72450
" />
<path d="M76610 72790
L76550 72820
L76410 72820
L76350 72790
L76320 72740
L76320 72680
L76350 72620
L76410 72590
L76550 72590
L76610 72570
" />
<path d="M77150 72820
L77150 72220
" />
<path d="M77150 72790
L77090 72820
L76980 72820
L76920 72790
L76890 72770
L76860 72710
L76860 72540
L76890 72480
L76920 72450
L76980 72420
L77090 72420
L77150 72450
" />
<path d="M77690 72820
L77690 72510
L77660 72450
L77600 72420
L77490 72420
L77430 72450
" />
<path d="M77690 72790
L77630 72820
L77490 72820
L77430 72790
L77400 72740
L77400 72680
L77430 72620
L77490 72590
L77630 72590
L77690 72570
" />
<path d="M77970 72420
L77970 73020
" />
<path d="M77970 72450
L78030 72420
L78140 72420
L78200 72450
L78230 72480
L78260 72540
L78260 72710
L78230 72770
L78200 72790
L78140 72820
L78030 72820
L77970 72790
" />
<path d="M78430 72420
L78660 72420
" />
<path d="M78510 72220
L78510 72740
L78540 72790
L78600 72820
L78660 72820
" />
<path d="M79080 72790
L79020 72820
L78910 72820
L78850 72790
L78820 72740
L78820 72510
L78850 72450
L78910 72420
L79020 72420
L79080 72450
L79110 72510
L79110 72570
L78820 72620
" />
<path d="M79360 72820
L79360 72420
" />
<path d="M79360 72540
L79390 72480
L79420 72450
L79480 72420
L79530 72420
" />
<path d="M79730 72770
L79760 72790
L79730 72820
L79700 72790
L79730 72770
L79730 72820
" />
<path d="M79990 72790
L80050 72820
L80170 72820
L80220 72790
L80250 72740
L80250 72710
L80220 72650
L80170 72620
L80080 72620
L80020 72590
L79990 72540
L79990 72510
L80020 72450
L80080 72420
L80170 72420
L80220 72450
" />
<path d="M80770 72790
L80710 72820
L80600 72820
L80540 72790
L80510 72770
L80480 72710
L80480 72540
L80510 72480
L80540 72450
L80600 72420
L80710 72420
L80770 72450
" />
<path d="M81020 72820
L81020 72220
" />
<path d="M81280 72820
L81280 72510
L81250 72450
L81190 72420
L81110 72420
L81050 72450
L81020 72480
" />
<path d="M70940 73990
L71030 74020
L71170 74020
L71230 73990
L71260 73970
L71290 73910
L71290 73850
L71260 73790
L71230 73770
L71170 73740
L71060 73710
L71000 73680
L70970 73650
L70940 73590
L70940 73540
L70970 73480
L71000 73450
L71060 73420
L71200 73420
L71290 73450
" />
<path d="M71540 74020
L71540 73420
" />
<path d="M71800 74020
L71800 73710
L71770 73650
L71710 73620
L71630 73620
L71570 73650
L71540 73680
" />
<path d="M72310 73990
L72250 74020
L72140 74020
L72080 73990
L72050 73940
L72050 73710
L72080 73650
L72140 73620
L72250 73620
L72310 73650
L72340 73710
L72340 73770
L72050 73820
" />
<path d="M72820 73990
L72760 74020
L72650 74020
L72590 73990
L72560 73940
L72560 73710
L72590 73650
L72650 73620
L72760 73620
L72820 73650
L72850 73710
L72850 73770
L72560 73820
" />
<path d="M73020 73620
L73250 73620
" />
<path d="M73100 73420
L73100 73940
L73130 73990
L73190 74020
L73250 74020
" />
<path d="M73440 73970
L73470 73990
L73440 74020
L73410 73990
L73440 73970
L73440 74020
" />
<path d="M73440 73650
L73470 73680
L73440 73710
L73410 73680
L73440 73650
L73440 73710
" />
<path d="M74620 73390
L74110 74170
" />
<path d="M70230 71980
L70230 77980
" />
<path d="M70230 71980
L112230 71980
" />
<path d="M70230 71980
L112230 71980
" />
<path d="M70230 74380
L112230 74380
" />
<path d="M103430 75580
L103430 77980
" />
<path d="M70230 76780
L112230 76780
" />
<path d="M70230 75580
L112230 75580
" />
<path d="M76830 75580
L76830 76780
" />
</g>
<g style="fill:#9F0000; fill-opacity:0.0; 
stroke:#9F0000; stroke-width:0; stroke-opacity:1; 
stroke-linecap:round; stroke-linejoin:round;">
</g>
<g style="fill:#9F0000; fill-opacity:0.0; 
stroke:#9F0000; stroke-width:60; stroke-opacity:1; 
stroke-linecap:round; stroke-linejoin:round;">
<rect x="41500" y="37000" width="2500" height="7000" rx="0" />
<circle cx="44350" cy="37500" r="350" /> 
<path d="M44700 37500
L46500 37500
" />
<path d="M45390 37350
L45110 37350
" />
<path d="M45250 37350
L45250 36850
L45200 36920
L45150 36970
L45110 37000
" />
<circle cx="44350" cy="38500" r="350" /> 
<path d="M44700 38500
L46500 38500
" />
<path d="M45110 37900
L45130 37880
L45180 37850
L45300 37850
L45340 37880
L45370 37900
L45390 37950
L45390 38000
L45370 38070
L45080 38350
L45390 38350
" />
<circle cx="44350" cy="39500" r="350" /> 
<path d="M44700 39500
L46500 39500
" />
<path d="M45080 38850
L45390 38850
L45220 39040
L45300 39040
L45340 39070
L45370 39090
L45390 39140
L45390 39260
L45370 39300
L45340 39330
L45300 39350
L45150 39350
L45110 39330
L45080 39300
" />
<circle cx="44350" cy="40500" r="350" /> 
<path d="M44700 40500
L46500 40500
" />
<path d="M45340 40020
L45340 40350
" />
<path d="M45220 39830
L45110 40190
L45410 40190
" />
<circle cx="44350" cy="41500" r="350" /> 
<path d="M44700 41500
L46500 41500
" />
<path d="M45370 40850
L45130 40850
L45110 41090
L45130 41070
L45180 41040
L45300 41040
L45340 41070
L45370 41090
L45390 41140
L45390 41260
L45370 41300
L45340 41330
L45300 41350
L45180 41350
L45130 41330
L45110 41300
" />
<circle cx="44350" cy="42500" r="350" /> 
<path d="M44700 42500
L46500 42500
" />
<path d="M45340 41850
L45250 41850
L45200 41880
L45180 41900
L45130 41970
L45110 42070
L45110 42260
L45130 42300
L45150 42330
L45200 42350
L45300 42350
L45340 42330
L45370 42300
L45390 42260
L45390 42140
L45370 42090
L45340 42070
L45300 42040
L45200 42040
L45150 42070
L45130 42090
L45110 42140
" />
<circle cx="44350" cy="43500" r="350" /> 
<path d="M44700 43500
L46500 43500
" />
<path d="M45080 42850
L45410 42850
L45200 43350
" />
</g>
<g style="fill:#009F9F; fill-opacity:0.0; 
stroke:#009F9F; stroke-width:60; stroke-opacity:1; 
stroke-linecap:round; stroke-linejoin:round;">
<path d="M43570 40930
L42970 40930
L42970 40700
L43000 40640
L43030 40610
L43090 40580
L43170 40580
L43230 40610
L43260 40640
L43290 40700
L43290 40930
" />
<path d="M43170 40070
L43570 40070
" />
<path d="M42940 40210
L43370 40360
L43370 39980
" />
<path d="M42520 41770
L42540 41800
L42570 41890
L42570 41950
L42540 42030
L42490 42090
L42430 42120
L42320 42150
L42230 42150
L42120 42120
L42060 42090
L42000 42030
L41970 41950
L41970 41890
L42000 41800
L42030 41770
" />
<path d="M41970 41400
L41970 41290
L42000 41230
L42060 41170
L42170 41150
L42370 41150
L42490 41170
L42540 41230
L42570 41290
L42570 41400
L42540 41460
L42490 41520
L42370 41550
L42170 41550
L42060 41520
L42000 41460
L41970 41400
" />
<path d="M42570 40890
L41970 40890
L42570 40540
L41970 40540
" />
<path d="M42570 40260
L41970 40260
L42570 39910
L41970 39910
" />
<path d="M42630 39770
L42630 39310
" />
<path d="M41970 39220
L41970 38820
L42570 39080
" />
</g>
<g style="fill:#009F9F; fill-opacity:0.0; 
stroke:#009F9F; stroke-width:0; stroke-opacity:1; 
stroke-linecap:round; stroke-linejoin:round;">
</g>
<g style="fill:#9F0000; fill-opacity:0.0; 
stroke:#9F0000; stroke-width:60; stroke-opacity:1; 
stroke-linecap:round; stroke-linejoin:round;">
<rect x="76500" y="37000" width="2500" height="7000" rx="0" />
<circle cx="76150" cy="37500" r="350" /> 
<path d="M75800 37500
L74000 37500
" />
<path d="M75390 37350
L75110 37350
" />
<path d="M75250 37350
L75250 36850
L75200 36920
L75150 36970
L75110 37000
" />
<circle cx="76150" cy="38500" r="350" /> 
<path d="M75800 38500
L74000 38500
" />
<path d="M75110 37900
L75130 37880
L75180 37850
L75300 37850
L75340 37880
L75370 37900
L75390 37950
L75390 38000
L75370 38070
L75080 38350
L75390 38350
" />
<circle cx="76150" cy="39500" r="350" /> 
<path d="M75800 39500
L74000 39500
" />
<path d="M75080 38850
L75390 38850
L75220 39040
L75300 39040
L75340 39070
L75370 39090
L75390 39140
L75390 39260
L75370 39300
L75340 39330
L75300 39350
L75150 39350
L75110 39330
L75080 39300
" />
<circle cx="76150" cy="40500" r="350" /> 
<path d="M75800 40500
L74000 40500
" />
<path d="M75340 40020
L75340 40350
" />
<path d="M75220 39830
L75110 40190
L75410 40190
" />
<circle cx="76150" cy="41500" r="350" /> 
<path d="M75800 41500
L74000 41500
" />
<path d="M75370 40850
L75130 40850
L75110 41090
L75130 41070
L75180 41040
L75300 41040
L75340 41070
L75370 41090
L75390 41140
L75390 41260
L75370 41300
L75340 41330
L75300 41350
L75180 41350
L75130 41330
L75110 41300
" />
<circle cx="76150" cy="42500" r="350" /> 
<path d="M75800 42500
L74000 42500
" />
<path d="M75340 41850
L75250 41850
L75200 41880
L75180 41900
L75130 41970
L75110 42070
L75110 42260
L75130 42300
L75150 42330
L75200 42350
L75300 42350
L75340 42330
L75370 42300
L75390 42260
L75390 42140
L75370 42090
L75340 42070
L75300 42040
L75200 42040
L75150 42070
L75130 42090
L75110 42140
" />
<circle cx="76150" cy="43500" r="350" /> 
<path d="M75800 43500
L74000 43500
" />
<path d="M75080 42850
L75410 42850
L75200 43350
" />
</g>
<g style="fill:#009F9F; fill-opacity:0.0; 
stroke:#009F9F; stroke-width:60; stroke-opacity:1; 
stroke-linecap:round; stroke-linejoin:round;">
<path d="M77410 40930
L76810 40930
L76810 40700
L76840 40640
L76870 40610
L76930 40580
L77010 40580
L77070 40610
L77100 40640
L77130 40700
L77130 40930
" />
<path d="M76870 40360
L76840 40330
L76810 40270
L76810 40130
L76840 40070
L76870 40040
L76930 40010
L76980 40010
L77070 40040
L77410 40380
L77410 40010
" />
<path d="M78360 41770
L78380 41800
L78410 41890
L78410 41950
L78380 42030
L78330 42090
L78270 42120
L78160 42150
L78070 42150
L77960 42120
L77900 42090
L77840 42030
L77810 41950
L77810 41890
L77840 41800
L77870 41770
" />
<path d="M77810 41400
L77810 41290
L77840 41230
L77900 41170
L78010 41150
L78210 41150
L78330 41170
L78380 41230
L78410 41290
L78410 41400
L78380 41460
L78330 41520
L78210 41550
L78010 41550
L77900 41520
L77840 41460
L77810 41400
" />
<path d="M78410 40890
L77810 40890
L78410 40540
L77810 40540
" />
<path d="M78410 40260
L77810 40260
L78410 39910
L77810 39910
" />
<path d="M78470 39770
L78470 39310
" />
<path d="M77810 39220
L77810 38820
L78410 39080
" />
</g>
<g style="fill:#009F9F; fill-opacity:0.0; 
stroke:#009F9F; stroke-width:0; stroke-opacity:1; 
stroke-linecap:round; stroke-linejoin:round;">
</g>
<g style="fill:#9F0000; fill-opacity:0.0; 
stroke:#9F0000; stroke-width:120; stroke-opacity:1; 
stroke-linecap:round; stroke-linejoin:round;">
<rect x="56100" y="34000" width="800" height="3000" rx="0" />
</g>
<g style="fill:#9F0000; fill-opacity:0.0; 
stroke:#9F0000; stroke-width:60; stroke-opacity:1; 
stroke-linecap:round; stroke-linejoin:round;">
<path d="M56500 34000
L56500 33000
" />
</g>
<g style="fill:#009F9F; fill-opacity:0.0; 
stroke:#009F9F; stroke-width:60; stroke-opacity:1; 
stroke-linecap:round; stroke-linejoin:round;">
</g>
<g style="fill:#9F0000; fill-opacity:0.0; 
stroke:#9F0000; stroke-width:60; stroke-opacity:1; 
stroke-linecap:round; stroke-linejoin:round;">
<path d="M56500 37000
L56500 38000
" />
</g>
<g style="fill:#009F9F; fill-opacity:0.0; 
stroke:#009F9F; stroke-width:60; stroke-opacity:1; 
stroke-linecap:round; stroke-linejoin:round;">
<path d="M57430 35570
L57240 35700
" />
<path d="M57430 35790
L57030 35790
L57030 35640
L57050 35600
L57070 35590
L57110 35570
L57170 35570
L57200 35590
L57220 35600
L57240 35640
L57240 35790
" />
<path d="M57430 35190
L57430 35410
" />
<path d="M57430 35300
L57030 35300
L57090 35340
L57130 35380
L57150 35410
" />
<path d="M56700 35370
L56510 35500
" />
<path d="M56700 35590
L56300 35590
L56300 35440
L56320 35400
L56340 35390
L56380 35370
L56440 35370
L56470 35390
L56490 35400
L56510 35440
L56510 35590
" />
</g>
<g style="fill:#009F9F; fill-opacity:0.0; 
stroke:#009F9F; stroke-width:0; stroke-opacity:1; 
stroke-linecap:round; stroke-linejoin:round;">
</g>
<g style="fill:#9F0000; fill-opacity:0.0; 
stroke:#9F0000; stroke-width:120; stroke-opacity:1; 
stroke-linecap:round; stroke-linejoin:round;">
<rect x="61600" y="34000" width="800" height="3000" rx="0" />
</g>
<g style="fill:#9F0000; fill-opacity:0.0; 
stroke:#9F0000; stroke-width:60; stroke-opacity:1; 
stroke-linecap:round; stroke-linejoin:round;">
<path d="M62000 34000
L62000 33000
" />
</g>
<g style="fill:#009F9F; fill-opacity:0.0; 
stroke:#009F9F; stroke-width:60; stroke-opacity:1; 
stroke-linecap:round; stroke-linejoin:round;">
</g>
<g style="fill:#9F0000; fill-opacity:0.0; 
stroke:#9F0000; stroke-width:60; stroke-opacity:1; 
stroke-linecap:round; stroke-linejoin:round;">
<path d="M62000 37000
L62000 38000
" />
</g>
<g style="fill:#009F9F; fill-opacity:0.0; 
stroke:#009F9F; stroke-width:60; stroke-opacity:1; 
stroke-linecap:round; stroke-linejoin:round;">
<path d="M62930 35570
L62740 35700
" />
<path d="M62930 35790
L62530 35790
L62530 35640
L62550 35600
L62570 35590
L62610 35570
L62670 35570
L62700 35590
L62720 35600
L62740 35640
L62740 35790
" />
<path d="M62570 35410
L62550 35390
L62530 35360
L62530 35260
L62550 35220
L62570 35200
L62610 35190
L62650 35190
L62700 35200
L62930 35430
L62930 35190
" />
<path d="M62200 35370
L62010 35500
" />
<path d="M62200 35590
L61800 35590
L61800 35440
L61820 35400
L61840 35390
L61880 35370
L61940 35370
L61970 35390
L61990 35400
L62010 35440
L62010 35590
" />
</g>
<g style="fill:#009F9F; fill-opacity:0.0; 
stroke:#009F9F; stroke-width:0; stroke-opacity:1; 
stroke-linecap:round; stroke-linejoin:round;">
</g>
<g style="fill:#9F0000; fill-opacity:0.0; 
stroke:#9F0000; stroke-width:60; stroke-opacity:1; 
stroke-linecap:round; stroke-linejoin:round;">
<rect x="57000" y="55000" width="4000" height="2000" rx="0" />
<circle cx="60500" cy="54650" r="350" /> 
<path d="M60500 54300
L60500 52500
" />
<path d="M60350 53610
L60350 53890
" />
<path d="M60350 53750
L59850 53750
L59920 53800
L59970 53850
L60000 53890
" />
<circle cx="59500" cy="54650" r="350" /> 
<path d="M59500 54300
L59500 52500
" />
<path d="M58900 53890
L58880 53870
L58850 53820
L58850 53700
L58880 53660
L58900 53630
L58950 53610
L59000 53610
L59070 53630
L59350 53920
L59350 53610
" />
<circle cx="58500" cy="54650" r="350" /> 
<path d="M58500 54300
L58500 52500
" />
<path d="M57850 53920
L57850 53610
L58040 53780
L58040 53700
L58070 53660
L58090 53630
L58140 53610
L58260 53610
L58300 53630
L58330 53660
L58350 53700
L58350 53850
L58330 53890
L58300 53920
" />
<circle cx="57500" cy="54650" r="350" /> 
<path d="M57500 54300
L57500 52500
" />
<path d="M57020 53660
L57350 53660
" />
<path d="M56830 53780
L57190 53890
L57190 53590
" />
</g>
<g style="fill:#009F9F; fill-opacity:0.0; 
stroke:#009F9F; stroke-width:60; stroke-opacity:1; 
stroke-linecap:round; stroke-linejoin:round;">
<path d="M58630 55670
L58630 55170
L58820 55170
L58870 55200
L58890 55220
L58910 55270
L58910 55340
L58890 55390
L58870 55410
L58820 55430
L58630 55430
" />
<path d="M59080 55170
L59390 55170
L59220 55360
L59300 55360
L59340 55390
L59370 55410
L59390 55460
L59390 55580
L59370 55620
L59340 55650
L59300 55670
L59150 55670
L59110 55650
L59080 55620
" />
<path d="M57940 56620
L57920 56650
L57850 56670
L57800 56670
L57730 56650
L57680 56600
L57660 56550
L57640 56460
L57640 56390
L57660 56290
L57680 56240
L57730 56200
L57800 56170
L57850 56170
L57920 56200
L57940 56220
" />
<path d="M58250 56170
L58350 56170
L58400 56200
L58440 56240
L58470 56340
L58470 56510
L58440 56600
L58400 56650
L58350 56670
L58250 56670
L58210 56650
L58160 56600
L58140 56510
L58140 56340
L58160 56240
L58210 56200
L58250 56170
" />
<path d="M58680 56670
L58680 56170
L58960 56670
L58960 56170
" />
<path d="M59200 56670
L59200 56170
L59480 56670
L59480 56170
" />
<path d="M59600 56720
L59980 56720
" />
<path d="M60310 56340
L60310 56670
" />
<path d="M60190 56150
L60080 56510
L60380 56510
" />
</g>
<g style="fill:#009F9F; fill-opacity:0.0; 
stroke:#009F9F; stroke-width:0; stroke-opacity:1; 
stroke-linecap:round; stroke-linejoin:round;">
</g>
<g style="fill:#FFFF7F; fill-opacity:0.6; 
stroke:#FFFF7F; stroke-width:0; stroke-opacity:1; 
stroke-linecap:round; stroke-linejoin:round;">
<rect x="50000" y="11500" width="20000" height="2500" rx="0" />
</g>
<g style="fill:#9F0000; fill-opacity:0.0; 
stroke:#9F0000; stroke-width:60; stroke-opacity:1; 
stroke-linecap:round; stroke-linejoin:round;">
<rect x="50000" y="11500" width="20000" height="2500" rx="0" />
<circle cx="69500" cy="14350" r="350" /> 
<path d="M69500 14700
L69500 16500
" />
<path d="M69350 15110
L69350 15390
" />
<path d="M69350 15250
L68850 15250
L68920 15300
L68970 15350
L69000 15390
" />
<circle cx="68500" cy="14350" r="350" /> 
<path d="M68500 14700
L68500 16500
" />
<path d="M67900 15390
L67880 15370
L67850 15320
L67850 15200
L67880 15160
L67900 15130
L67950 15110
L68000 15110
L68070 15130
L68350 15420
L68350 15110
" />
<circle cx="67500" cy="14350" r="350" /> 
<path d="M67500 14700
L67500 16500
" />
<path d="M66850 15420
L66850 15110
L67040 15280
L67040 15200
L67070 15160
L67090 15130
L67140 15110
L67260 15110
L67300 15130
L67330 15160
L67350 15200
L67350 15350
L67330 15390
L67300 15420
" />
<circle cx="66500" cy="14350" r="350" /> 
<path d="M66500 14700
L66500 16500
" />
<path d="M66020 15160
L66350 15160
" />
<path d="M65830 15280
L66190 15390
L66190 15090
" />
<circle cx="65500" cy="14350" r="350" /> 
<path d="M65500 14700
L65500 16500
" />
<path d="M64850 15130
L64850 15370
L65090 15390
L65070 15370
L65040 15320
L65040 15200
L65070 15160
L65090 15130
L65140 15110
L65260 15110
L65300 15130
L65330 15160
L65350 15200
L65350 15320
L65330 15370
L65300 15390
" />
<circle cx="64500" cy="14350" r="350" /> 
<path d="M64500 14700
L64500 16500
" />
<path d="M63850 15160
L63850 15250
L63880 15300
L63900 15320
L63970 15370
L64070 15390
L64260 15390
L64300 15370
L64330 15350
L64350 15300
L64350 15200
L64330 15160
L64300 15130
L64260 15110
L64140 15110
L64090 15130
L64070 15160
L64040 15200
L64040 15300
L64070 15350
L64090 15370
L64140 15390
" />
<circle cx="63500" cy="14350" r="350" /> 
<path d="M63500 14700
L63500 16500
" />
<path d="M62850 15420
L62850 15090
L63350 15300
" />
<circle cx="62500" cy="14350" r="350" /> 
<path d="M62500 14700
L62500 16500
" />
<path d="M62070 15300
L62040 15350
L62020 15370
L61970 15390
L61950 15390
L61900 15370
L61880 15350
L61850 15300
L61850 15200
L61880 15160
L61900 15130
L61950 15110
L61970 15110
L62020 15130
L62040 15160
L62070 15200
L62070 15300
L62090 15350
L62110 15370
L62160 15390
L62260 15390
L62300 15370
L62330 15350
L62350 15300
L62350 15200
L62330 15160
L62300 15130
L62260 15110
L62160 15110
L62110 15130
L62090 15160
L62070 15200
" />
<circle cx="61500" cy="14350" r="350" /> 
<path d="M61500 14700
L61500 16500
" />
<path d="M61350 15350
L61350 15250
L61330 15200
L61300 15180
L61230 15130
L61140 15110
L60950 15110
L60900 15130
L60880 15160
L60850 15200
L60850 15300
L60880 15350
L60900 15370
L60950 15390
L61070 15390
L61110 15370
L61140 15350
L61160 15300
L61160 15200
L61140 15160
L61110 15130
L61070 15110
" />
<circle cx="60500" cy="14350" r="350" /> 
<path d="M60500 14700
L60500 16500
" />
<path d="M60350 15350
L60350 15630
" />
<path d="M60350 15490
L59850 15490
L59920 15540
L59970 15590
L60000 15630
" />
<path d="M59850 15040
L59850 14990
L59880 14940
L59900 14920
L59950 14890
L60040 14870
L60160 14870
L60260 14890
L60300 14920
L60330 14940
L60350 14990
L60350 15040
L60330 15080
L60300 15110
L60260 15130
L60160 15150
L60040 15150
L59950 15130
L59900 15110
L59880 15080
L59850 15040
" />
<circle cx="50500" cy="14350" r="350" /> 
<path d="M50500 14700
L50500 16500
" />
<path d="M49900 15630
L49880 15610
L49850 15560
L49850 15440
L49880 15400
L49900 15370
L49950 15350
L50000 15350
L50070 15370
L50350 15660
L50350 15350
" />
<path d="M49850 15040
L49850 14990
L49880 14940
L49900 14920
L49950 14890
L50040 14870
L50160 14870
L50260 14890
L50300 14920
L50330 14940
L50350 14990
L50350 15040
L50330 15080
L50300 15110
L50260 15130
L50160 15150
L50040 15150
L49950 15130
L49900 15110
L49880 15080
L49850 15040
" />
<circle cx="59500" cy="14350" r="350" /> 
<path d="M59500 14700
L59500 16500
" />
<path d="M59350 15350
L59350 15630
" />
<path d="M59350 15490
L58850 15490
L58920 15540
L58970 15590
L59000 15630
" />
<path d="M59350 14870
L59350 15150
" />
<path d="M59350 15010
L58850 15010
L58920 15060
L58970 15110
L59000 15150
" />
<circle cx="58500" cy="14350" r="350" /> 
<path d="M58500 14700
L58500 16500
" />
<path d="M58350 15350
L58350 15630
" />
<path d="M58350 15490
L57850 15490
L57920 15540
L57970 15590
L58000 15630
" />
<path d="M57900 15150
L57880 15130
L57850 15080
L57850 14960
L57880 14920
L57900 14890
L57950 14870
L58000 14870
L58070 14890
L58350 15180
L58350 14870
" />
<circle cx="57500" cy="14350" r="350" /> 
<path d="M57500 14700
L57500 16500
" />
<path d="M57350 15350
L57350 15630
" />
<path d="M57350 15490
L56850 15490
L56920 15540
L56970 15590
L57000 15630
" />
<path d="M56850 15180
L56850 14870
L57040 15040
L57040 14960
L57070 14920
L57090 14890
L57140 14870
L57260 14870
L57300 14890
L57330 14920
L57350 14960
L57350 15110
L57330 15150
L57300 15180
" />
<circle cx="56500" cy="14350" r="350" /> 
<path d="M56500 14700
L56500 16500
" />
<path d="M56350 15350
L56350 15630
" />
<path d="M56350 15490
L55850 15490
L55920 15540
L55970 15590
L56000 15630
" />
<path d="M56020 14920
L56350 14920
" />
<path d="M55830 15040
L56190 15150
L56190 14850
" />
<circle cx="55500" cy="14350" r="350" /> 
<path d="M55500 14700
L55500 16500
" />
<path d="M55350 15350
L55350 15630
" />
<path d="M55350 15490
L54850 15490
L54920 15540
L54970 15590
L55000 15630
" />
<path d="M54850 14890
L54850 15130
L55090 15150
L55070 15130
L55040 15080
L55040 14960
L55070 14920
L55090 14890
L55140 14870
L55260 14870
L55300 14890
L55330 14920
L55350 14960
L55350 15080
L55330 15130
L55300 15150
" />
<circle cx="54500" cy="14350" r="350" /> 
<path d="M54500 14700
L54500 16500
" />
<path d="M54350 15350
L54350 15630
" />
<path d="M54350 15490
L53850 15490
L53920 15540
L53970 15590
L54000 15630
" />
<path d="M53850 14920
L53850 15010
L53880 15060
L53900 15080
L53970 15130
L54070 15150
L54260 15150
L54300 15130
L54330 15110
L54350 15060
L54350 14960
L54330 14920
L54300 14890
L54260 14870
L54140 14870
L54090 14890
L54070 14920
L54040 14960
L54040 15060
L54070 15110
L54090 15130
L54140 15150
" />
<circle cx="53500" cy="14350" r="350" /> 
<path d="M53500 14700
L53500 16500
" />
<path d="M53350 15350
L53350 15630
" />
<path d="M53350 15490
L52850 15490
L52920 15540
L52970 15590
L53000 15630
" />
<path d="M52850 15180
L52850 14850
L53350 15060
" />
<circle cx="52500" cy="14350" r="350" /> 
<path d="M52500 14700
L52500 16500
" />
<path d="M52350 15350
L52350 15630
" />
<path d="M52350 15490
L51850 15490
L51920 15540
L51970 15590
L52000 15630
" />
<path d="M52070 15060
L52040 15110
L52020 15130
L51970 15150
L51950 15150
L51900 15130
L51880 15110
L51850 15060
L51850 14960
L51880 14920
L51900 14890
L51950 14870
L51970 14870
L52020 14890
L52040 14920
L52070 14960
L52070 15060
L52090 15110
L52110 15130
L52160 15150
L52260 15150
L52300 15130
L52330 15110
L52350 15060
L52350 14960
L52330 14920
L52300 14890
L52260 14870
L52160 14870
L52110 14890
L52090 14920
L52070 14960
" />
<circle cx="51500" cy="14350" r="350" /> 
<path d="M51500 14700
L51500 16500
" />
<path d="M51350 15350
L51350 15630
" />
<path d="M51350 15490
L50850 15490
L50920 15540
L50970 15590
L51000 15630
" />
<path d="M51350 15110
L51350 15010
L51330 14960
L51300 14940
L51230 14890
L51140 14870
L50950 14870
L50900 14890
L50880 14920
L50850 14960
L50850 15060
L50880 15110
L50900 15130
L50950 15150
L51070 15150
L51110 15130
L51140 15110
L51160 15060
L51160 14960
L51140 14920
L51110 14890
L51070 14870
" />
</g>
<g style="fill:#009F9F; fill-opacity:0.0; 
stroke:#009F9F; stroke-width:60; stroke-opacity:1; 
stroke-linecap:round; stroke-linejoin:round;">
<path d="M59560 13770
L59560 13170
L59790 13170
L59850 13200
L59880 13230
L59910 13290
L59910 13370
L59880 13430
L59850 13460
L59790 13490
L59560 13490
" />
<path d="M60480 13770
L60130 13770
" />
<path d="M60310 13770
L60310 13170
L60250 13260
L60190 13320
L60130 13340
" />
<path d="M58450 12720
L58420 12740
L58330 12770
L58270 12770
L58190 12740
L58130 12690
L58100 12630
L58070 12520
L58070 12430
L58100 12320
L58130 12260
L58190 12200
L58270 12170
L58330 12170
L58420 12200
L58450 12230
" />
<path d="M58820 12170
L58930 12170
L58990 12200
L59050 12260
L59070 12370
L59070 12570
L59050 12690
L58990 12740
L58930 12770
L58820 12770
L58760 12740
L58700 12690
L58670 12570
L58670 12370
L58700 12260
L58760 12200
L58820 12170
" />
<path d="M59330 12770
L59330 12170
L59680 12770
L59680 12170
" />
<path d="M59960 12770
L59960 12170
L60310 12770
L60310 12170
" />
<path d="M60450 12830
L60910 12830
" />
<path d="M61020 12230
L61050 12200
L61110 12170
L61250 12170
L61310 12200
L61340 12230
L61370 12290
L61370 12340
L61340 12430
L61000 12770
L61370 12770
" />
<path d="M61740 12170
L61790 12170
L61850 12200
L61880 12230
L61910 12290
L61940 12400
L61940 12540
L61910 12660
L61880 12720
L61850 12740
L61790 12770
L61740 12770
L61680 12740
L61650 12720
L61620 12660
L61590 12540
L61590 12400
L61620 12290
L61650 12230
L61680 12200
L61740 12170
" />
</g>
<g style="fill:#009F00; fill-opacity:0.0; 
stroke:#009F00; stroke-width:60; stroke-opacity:1; 
stroke-linecap:round; stroke-linejoin:round;">
<path d="M69500 16500
L69500 37500
" />
<path d="M69500 37500
L74000 37500
" />
<path d="M68500 16500
L68500 38500
" />
<path d="M68500 38500
L74000 38500
" />
<path d="M67500 16500
L67500 39500
" />
<path d="M67500 39500
L74000 39500
" />
<path d="M66500 16500
L66500 40500
" />
<path d="M66500 40500
L74000 40500
" />
<path d="M65500 16500
L65500 41500
" />
<path d="M65500 41500
L74000 41500
" />
<path d="M64500 16500
L64500 42500
" />
<path d="M64500 42500
L74000 42500
" />
<path d="M63500 16500
L63500 33000
" />
<path d="M63500 33000
L63500 43500
" />
<path d="M63500 33000
L62000 33000
" />
<path d="M63500 43500
L74000 43500
" />
</g>
<g style="fill:#009F00; fill-opacity:0.0; 
stroke:#009F00; stroke-width:0; stroke-opacity:1; 
stroke-linecap:round; stroke-linejoin:round;">
</g>
<g style="fill:#009F00; fill-opacity:1.0; 
stroke:#009F00; stroke-width:100; stroke-opacity:1; 
stroke-linecap:round; stroke-linejoin:round;">
<circle cx="63500" cy="33000" r="160" /> 
</g>
<g style="fill:#009F00; fill-opacity:1.0; 
stroke:#009F00; stroke-width:60; stroke-opacity:1; 
stroke-linecap:round; stroke-linejoin:round;">
<path d="M62500 16500
L62500 32000
" />
<path d="M62500 32000
L61000 32000
" />
<path d="M61000 32000
L61000 38000
" />
<path d="M61000 38000
L62000 38000
" />
<path d="M61500 16500
L61500 31000
" />
<path d="M61500 31000
L60500 31000
" />
<path d="M60500 31000
L60500 52500
" />
<path d="M59500 16500
L59500 52500
" />
<path d="M58500 16500
L58500 31000
" />
<path d="M58500 31000
L58500 52500
" />
<path d="M57500 16500
L57500 18000
" />
<path d="M57500 18000
L58000 18000
" />
<path d="M58000 18000
L58000 31000
" />
<path d="M58000 31000
L58000 44000
" />
<path d="M58000 44000
L57500 44000
" />
<path d="M57500 44000
L57500 52500
" />
<path d="M57500 31000
L56500 31000
" />
<path d="M56500 31000
L57500 31000
" />
<path d="M57500 31000
L58000 31000
" />
<path d="M56500 31000
L56500 33000
" />
</g>
<g style="fill:#009F00; fill-opacity:1.0; 
stroke:#009F00; stroke-width:0; stroke-opacity:1; 
stroke-linecap:round; stroke-linejoin:round;">
</g>
<g style="fill:#009F00; fill-opacity:1.0; 
stroke:#009F00; stroke-width:100; stroke-opacity:1; 
stroke-linecap:round; stroke-linejoin:round;">
<circle cx="58000" cy="31000" r="160" /> 
</g>
<g style="fill:#009F00; fill-opacity:1.0; 
stroke:#009F00; stroke-width:60; stroke-opacity:1; 
stroke-linecap:round; stroke-linejoin:round;">
<path d="M57500 31000
L57500 43500
" />
<path d="M57500 43500
L46500 43500
" />
<path d="M56500 16500
L56500 30000
" />
<path d="M56500 30000
L55500 30000
" />
<path d="M55500 30000
L55500 38000
" />
<path d="M55500 38000
L56500 38000
" />
<path d="M50500 16500
L50500 37500
" />
<path d="M50500 37500
L46500 37500
" />
<path d="M51500 16500
L51500 38500
" />
<path d="M51500 38500
L46500 38500
" />
<path d="M52500 16500
L52500 39500
" />
<path d="M52500 39500
L46500 39500
" />
<path d="M53500 16500
L53500 40500
" />
<path d="M53500 40500
L46500 40500
" />
<path d="M54500 16500
L54500 41500
" />
<path d="M54500 41500
L46500 41500
" />
<path d="M55500 16500
L55500 18000
" />
<path d="M55500 18000
L55000 18000
" />
<path d="M55000 18000
L55000 42500
" />
<path d="M55000 42500
L46500 42500
" />
</g>
<g style="fill:#009F00; fill-opacity:1.0; 
stroke:#009F00; stroke-width:0; stroke-opacity:1; 
stroke-linecap:round; stroke-linejoin:round;">
</g>
<g style="fill:#009F00; fill-opacity:1.0; 
stroke:#009F00; stroke-width:100; stroke-opacity:1; 
stroke-linecap:round; stroke-linejoin:round;">
<circle cx="57500" cy="31000" r="160" /> 
</g> 
</svg>
